<?xml version="1.0" encoding="UTF-8"?> <svg xmlns="http://www.w3.org/2000/svg" width="19" height="19" viewBox="0 0 19 19" fill="none"><path d="M18.2971 8.51203L14.6871 12.046L15.5421 17.024C15.7511 18.221 15.0481 18.715 13.9841 18.164L9.50007 15.808L5.01607 18.164C3.95207 18.734 3.24907 18.221 3.45807 17.024L4.31307 12.046L0.703068 8.51203C-0.151932 7.67603 0.114068 6.84003 1.29207 6.66903L6.28907 5.94703L8.53107 1.42503C8.79707 0.893032 9.13907 0.608032 9.50007 0.608032C9.86107 0.608032 10.2031 0.874032 10.4691 1.42503L12.7111 5.96603L17.7081 6.68803C18.9051 6.85903 19.1711 7.67603 18.2971 8.51203Z" fill="#FF4A2D"></path><path d="M18.297 8.51203L14.687 12.046L15.542 17.024C15.751 18.221 15.048 18.715 13.984 18.164L9.5 15.808V0.608032C9.842 0.608032 10.203 0.874032 10.469 1.42503L12.711 5.96603L17.708 6.68803C18.905 6.85903 19.171 7.67603 18.297 8.51203Z" fill="#151515"></path></svg> 