<svg width="88" height="55" viewBox="0 0 88 55" fill="none" xmlns="http://www.w3.org/2000/svg">
<path d="M22.0777 33.5444C21.7153 30.6382 19.7522 28.1002 16.4176 26.1953C15.4523 25.6448 14.4679 25.2052 13.4893 24.7675L13.4816 24.7807C13.2394 24.6698 12.9628 24.6548 12.6995 24.7675C11.738 25.1977 10.746 25.6411 9.77309 26.1953C6.43844 28.0983 4.48305 30.6382 4.11487 33.5425C3.83444 35.7762 4.45253 38.8064 6.47278 40.1684C7.18816 40.6493 8.03709 40.8841 8.92798 40.8841C9.25229 40.8841 9.58041 40.8465 9.90854 40.7883L8.38429 43.7828C8.2393 44.0721 8.25457 44.4196 8.42435 44.6958C8.59986 44.972 8.90509 45.141 9.23703 45.141H16.9498C17.2818 45.141 17.587 44.972 17.7625 44.6958C17.938 44.4215 17.9533 44.0721 17.8026 43.7828L16.2764 40.7883C16.6103 40.8484 16.9384 40.8841 17.2627 40.8841C18.1498 40.8841 19.0025 40.6493 19.7141 40.1684C21.742 38.8064 22.3601 35.7799 22.0777 33.5444ZM18.6381 38.6166C17.6442 39.291 16.0303 39.0637 14.8113 38.085C14.7712 38.0512 14.7216 38.0399 14.674 38.0136C14.6205 37.9779 14.5614 37.9403 14.4946 37.9215C14.4279 37.9009 14.3611 37.9009 14.2905 37.8934C14.2409 37.8896 14.1856 37.8746 14.1303 37.8802C14.0654 37.8858 13.9986 37.9121 13.9319 37.9328C13.8842 37.9478 13.8346 37.9478 13.7869 37.9723C13.7831 37.9723 13.7792 37.976 13.7754 37.9798C13.7201 38.008 13.6781 38.0568 13.6266 38.0944C13.5789 38.1338 13.5217 38.1639 13.4816 38.2127C13.4816 38.2165 13.4778 38.2165 13.474 38.2202C13.4359 38.2597 13.4282 38.3142 13.3996 38.3593C13.3653 38.4156 13.3252 38.4701 13.3061 38.5321C13.2871 38.5941 13.2871 38.6561 13.2794 38.7218C13.2756 38.7782 13.2584 38.8345 13.2623 38.8928C13.2718 38.9679 13.2985 39.0374 13.3214 39.1088C13.3367 39.1483 13.3367 39.1934 13.3576 39.2328L15.4084 43.2643H10.7842L12.833 39.2328C12.8559 39.1934 12.8559 39.1483 12.8731 39.1069C12.896 39.0356 12.9227 38.966 12.9303 38.8909C12.9341 38.8345 12.9189 38.7782 12.9112 38.72C12.9074 38.6561 12.9074 38.596 12.8884 38.5321C12.8636 38.4682 12.8292 38.4137 12.7949 38.3555C12.7663 38.3123 12.7548 38.2578 12.7205 38.2165C12.7167 38.2127 12.7128 38.2127 12.709 38.209C12.6728 38.1695 12.6213 38.1395 12.5793 38.1056C12.5278 38.0624 12.4744 38.008 12.4152 37.9779C12.4114 37.9779 12.4114 37.9741 12.4076 37.9741C12.3676 37.9535 12.3294 37.9554 12.2893 37.9422C12.2111 37.914 12.1367 37.8858 12.0509 37.8783C12.0127 37.8765 11.9727 37.8896 11.9307 37.8896C11.8487 37.8934 11.7666 37.8971 11.6846 37.9234C11.6445 37.9366 11.6102 37.9629 11.5663 37.9854C11.4996 38.0174 11.429 38.038 11.3679 38.0869C10.147 39.0675 8.54072 39.291 7.54109 38.6204C6.42699 37.8708 5.74976 35.7424 5.99586 33.7755C6.36595 30.8711 8.76964 28.9343 10.725 27.8184C11.49 27.3844 12.276 27.0219 13.0887 26.6593C13.9071 27.0219 14.693 27.3844 15.4542 27.8184C17.4058 28.9343 19.8133 30.8711 20.1815 33.7755C20.4352 35.7424 19.7561 37.8689 18.6381 38.6166Z" fill="#FF4646"/>
<path d="M30.7672 40.1722C31.4788 40.6494 32.3296 40.8842 33.2186 40.8842C33.5429 40.8842 33.8749 40.8467 34.203 40.7884L32.6787 43.7829C32.5299 44.0722 32.5452 44.4198 32.7188 44.6959C32.8924 44.974 33.1995 45.1411 33.5315 45.1411H41.2462C41.5781 45.1411 41.8834 44.9721 42.0589 44.6959C42.2306 44.4216 42.2458 44.0722 42.0989 43.7829L40.5747 40.7884C40.9028 40.8485 41.2309 40.8842 41.5552 40.8842C42.448 40.8842 43.2951 40.6494 44.0066 40.1722C46.0345 38.8065 46.6545 35.78 46.3664 33.5445C46.004 30.6383 44.0429 28.1003 40.712 26.1973C39.7506 25.6506 38.7681 25.2129 37.7799 24.7714L37.7723 24.7921C37.5224 24.6794 37.2362 24.6624 36.971 24.7808C36.0172 25.2072 35.0271 25.6468 34.0656 26.1973C30.731 28.0984 28.7737 30.6383 28.4055 33.5445C28.1213 35.78 28.7393 38.8084 30.7672 40.1722ZM30.296 33.7756C30.6585 30.8675 33.0679 28.9325 35.0214 27.8185C35.7768 27.3864 36.5666 27.0257 37.3869 26.6594C38.2034 27.0239 38.9894 27.3845 39.7525 27.8185C41.7021 28.9344 44.1077 30.8712 44.474 33.7756C44.7239 35.7406 44.0448 37.8691 42.9269 38.6205C41.933 39.2893 40.3267 39.0676 39.1038 38.087C39.06 38.0513 39.0085 38.04 38.9665 38.0137C38.9074 37.9818 38.8482 37.9423 38.7872 37.9217C38.7204 37.901 38.6498 37.901 38.5792 37.8935C38.5277 37.8897 38.4743 37.8747 38.4228 37.8803C38.356 37.886 38.2931 37.9123 38.2282 37.9311C38.1767 37.9461 38.1214 37.948 38.0718 37.9705C38.068 37.9743 38.068 37.978 38.0584 37.978C38.0126 38.0043 37.9688 38.0475 37.9268 38.0832C37.8753 38.1245 37.8085 38.1602 37.7704 38.2091C37.7666 38.2128 37.7627 38.2128 37.7589 38.2166C37.7227 38.2561 37.7112 38.3087 37.6845 38.3556C37.6483 38.412 37.6139 38.4665 37.5911 38.5285C37.5701 38.5904 37.5739 38.6524 37.5662 38.7182C37.5586 38.7745 37.5434 38.8309 37.551 38.8891C37.5548 38.9643 37.5872 39.0338 37.6063 39.1052C37.6216 39.1446 37.6216 39.1916 37.6445 39.2329L39.6933 43.2625H35.071L37.1237 39.2329C37.1427 39.1916 37.1427 39.1484 37.158 39.1052C37.1847 39.0338 37.2095 38.9643 37.2171 38.8891C37.221 38.8309 37.2057 38.7745 37.2019 38.7182C37.1942 38.6543 37.1943 38.5923 37.1733 38.5285C37.1542 38.4665 37.116 38.412 37.0798 38.3556C37.0531 38.3087 37.0416 38.2561 37.0054 38.2166C37.0016 38.2128 36.9978 38.2128 36.9978 38.2091C36.9634 38.1696 36.9157 38.1433 36.8776 38.1095C36.8222 38.0626 36.7669 38.0062 36.7002 37.9743C36.6963 37.9743 36.6963 37.9705 36.6925 37.9705C36.6582 37.9517 36.6219 37.9536 36.5876 37.9404C36.5056 37.9104 36.4274 37.8822 36.3415 37.8747C36.3014 37.8728 36.2633 37.886 36.2213 37.886C36.1355 37.8897 36.0534 37.8935 35.9752 37.9198C35.9333 37.9329 35.897 37.963 35.855 37.9818C35.7883 38.0137 35.7215 38.0325 35.6586 38.0832C34.4395 39.0639 32.8333 39.2912 31.8317 38.6167C30.7253 37.8691 30.0499 35.7425 30.296 33.7756Z" fill="#FF4646"/>
<path d="M65.0008 26.1953C64.0355 25.6448 63.0511 25.2052 62.0706 24.7675L62.0648 24.7807C61.8226 24.6698 61.5421 24.6548 61.2846 24.7675C60.3231 25.1977 59.3292 25.6411 58.3563 26.1953C55.0216 28.0983 53.0624 30.6382 52.6962 33.5425C52.4138 35.7762 53.0319 38.8064 55.056 40.1684C55.7675 40.6493 56.6184 40.8803 57.5074 40.8803C57.8317 40.8803 58.1636 40.8447 58.4936 40.7845L56.9675 43.779C56.8187 44.0721 56.8359 44.4178 57.0075 44.6958C57.1831 44.972 57.4883 45.1392 57.8221 45.1392H65.5349C65.8669 45.1392 66.1721 44.9701 66.3476 44.6958C66.5193 44.4196 66.5365 44.0721 66.3877 43.779L64.8634 40.7845C65.1916 40.8465 65.5197 40.8803 65.8459 40.8803C66.7368 40.8803 67.5876 40.6455 68.2992 40.1684C70.3252 38.8045 70.9433 35.7799 70.6609 33.5406C70.2889 30.6382 68.3354 28.0964 65.0008 26.1953ZM67.2213 38.6166C66.2255 39.291 64.6154 39.0637 63.3945 38.085C63.3525 38.0474 63.2953 38.0361 63.2495 38.0098C63.1961 37.9779 63.1408 37.9403 63.0778 37.9215C63.0111 37.9009 62.9405 37.9009 62.8756 37.8934C62.8203 37.8896 62.7688 37.8746 62.7154 37.8802C62.6486 37.8858 62.5856 37.9121 62.517 37.9309C62.4712 37.946 62.4101 37.9478 62.3643 37.9704C62.3605 37.9741 62.3605 37.9779 62.3529 37.9779C62.3052 38.0042 62.2613 38.0474 62.2194 38.0831C62.1698 38.1244 62.1011 38.1601 62.0629 38.209C62.0591 38.2127 62.0553 38.2127 62.0515 38.2165C62.0152 38.2559 62.0057 38.3085 61.9771 38.3555C61.9408 38.4119 61.9065 38.4663 61.8836 38.5283C61.8626 38.5903 61.8664 38.6523 61.8588 38.7181C61.8512 38.7744 61.8359 38.8308 61.8436 38.889C61.8474 38.9642 61.8798 39.0337 61.8989 39.1051C61.9141 39.1445 61.9141 39.1915 61.937 39.2328L63.9859 43.2624H59.3616L61.4143 39.2328C61.4334 39.1915 61.4334 39.1483 61.4487 39.1051C61.4773 39.0337 61.5002 38.9642 61.5078 38.889C61.5116 38.8308 61.4963 38.7744 61.4925 38.7181C61.4849 38.6542 61.4849 38.5922 61.4658 38.5283C61.4467 38.4645 61.4067 38.4119 61.3723 38.3555C61.3437 38.3085 61.3323 38.2559 61.298 38.2165C61.2941 38.2127 61.2903 38.2127 61.2903 38.209C61.2541 38.1695 61.2083 38.1432 61.1682 38.1094C61.1129 38.0624 61.0595 38.0061 60.9927 37.9741C60.9889 37.9741 60.9889 37.9704 60.9851 37.9704C60.9488 37.9516 60.9183 37.9535 60.884 37.9403C60.802 37.9103 60.7199 37.8821 60.6322 37.8746C60.5902 37.8708 60.5501 37.8821 60.5082 37.8858C60.4299 37.8896 60.3479 37.8934 60.2697 37.9159C60.2182 37.9347 60.1724 37.9666 60.1247 37.9929C60.0694 38.0249 60.0084 38.0399 59.9568 38.0831C58.734 39.0637 57.1296 39.2873 56.13 38.6166C55.0121 37.8671 54.3349 35.7386 54.581 33.7717C54.9434 30.8674 57.3528 28.9305 59.3082 27.8165C60.0694 27.3826 60.8592 27.02 61.6738 26.6574C62.4903 27.02 63.2762 27.3826 64.0374 27.8165C65.9871 28.9324 68.3927 30.8674 68.7647 33.7717C69.0108 35.7424 68.3354 37.8689 67.2213 38.6166Z" fill="#FF4646"/>
<path d="M81.6417 0C78.1353 0 75.2852 2.80664 75.2852 6.25764C75.2852 9.3874 77.6355 11.963 80.6878 12.4195V31.2056C80.6878 32.7592 79.402 34.0235 77.8263 34.0235H74.7701V21.495C74.7701 17.8674 71.7751 14.9199 68.0932 14.9199H6.67693C2.99317 14.9199 0 17.8674 0 21.495V48.4249C0 52.0525 2.99317 55 6.67693 55H68.097C71.7808 55 74.774 52.0525 74.774 48.4249V35.9002H77.832C80.4627 35.9002 82.6012 33.7924 82.6012 31.2037V12.4176C85.6497 11.9592 88 9.38365 88 6.25576C87.9981 2.80664 85.1442 0 81.6417 0ZM48.5737 16.8004V53.1233H26.1945V16.8004H48.5737ZM1.90769 48.4268V21.4969C1.90769 18.9082 4.04622 16.8004 6.67693 16.8004H24.2868V53.1233H6.67693C4.04622 53.1233 1.90769 51.0155 1.90769 48.4268ZM72.8663 48.4268C72.8663 51.0155 70.7277 53.1233 68.097 53.1233H50.4852V16.8004H68.0951C70.7258 16.8004 72.8644 18.9082 72.8644 21.4969V48.4268H72.8663ZM81.6417 10.6348C79.1903 10.6348 77.1929 8.67165 77.1929 6.25576C77.1929 3.83987 79.1903 1.87673 81.6417 1.87673C84.093 1.87673 86.0866 3.83987 86.0866 6.25576C86.0866 8.67165 84.0988 10.6348 81.6417 10.6348Z" fill="#FF4646"/>
</svg>
