<svg width="55" height="55" viewBox="0 0 55 55" fill="none" xmlns="http://www.w3.org/2000/svg">
<path d="M27.4609 0.000101612C22.0296 0.000163364 16.7204 1.61076 12.2044 4.62822C7.68853 7.64568 4.1688 11.9345 2.09036 16.9523C0.0119066 21.9701 -0.531916 27.4915 0.527655 32.8184C1.58723 38.1453 4.2026 43.0383 8.04306 46.8788C10.5894 49.4456 13.6174 51.4843 16.9536 52.8779C20.2897 54.2716 23.8682 54.9927 27.4837 54.9999C31.0992 55.0072 34.6806 54.3004 38.0223 52.9202C41.364 51.5399 44.4002 49.5134 46.9568 46.9569C49.5134 44.4003 51.5399 41.3641 52.9202 38.0224C54.3004 34.6808 55.0072 31.0994 54.9999 27.4839C54.9927 23.8684 54.2716 20.29 52.8779 16.9539C51.4843 13.6177 49.4456 10.5897 46.8788 8.0434C44.3348 5.48538 41.3086 3.45735 37.9755 2.07671C34.6425 0.696079 31.0686 -0.0097446 27.4609 0.000101612ZM45.6174 45.6175C40.7972 50.4097 34.2735 53.0952 27.4764 53.0853C20.6793 53.0754 14.1635 50.3709 9.35725 45.5647C4.55099 40.7584 1.84647 34.2426 1.83657 27.4456C1.82666 20.6486 4.51217 14.125 9.3044 9.30474C14.1247 4.51254 20.6483 1.82705 27.4454 1.83696C34.2425 1.84686 40.7583 4.55136 45.5646 9.35758C50.3708 14.1638 53.0754 20.6796 53.0853 27.4766C53.0952 34.2736 50.4097 40.7973 45.6174 45.6175Z" fill="#FF4646"/>
<path d="M27.4609 5.83301C15.5351 5.83301 5.83258 15.5353 5.83258 27.4612C5.83258 39.3871 15.5351 49.0894 27.4609 49.0894C39.3868 49.0894 49.0893 39.3871 49.0893 27.4612C49.0893 15.5353 39.3868 5.83301 27.4609 5.83301ZM41.4829 26.6807C41.3091 23.5243 40.0711 20.5197 37.9708 18.157L42.0757 14.0521C45.259 17.5084 47.1071 21.9855 47.2885 26.6807H41.4829ZM36.7061 16.8989C34.3519 14.8298 31.3709 13.6114 28.2414 13.4394V7.63364C32.9097 7.81384 37.3634 9.64158 40.8125 12.7927L36.7061 16.8989ZM26.4575 13.4535C23.3536 13.6743 20.4118 14.9236 18.0976 17.0038L13.994 12.9001C17.401 9.73649 21.814 7.87483 26.4575 7.64222V13.4535ZM16.8466 18.2752C14.8084 20.6206 13.6094 23.5781 13.439 26.6807H7.63334C7.81249 22.0396 9.62039 17.6097 12.7398 14.1685L16.8466 18.2752ZM13.4533 28.4647C13.6698 31.5146 14.88 34.4096 16.8985 36.7063L12.7922 40.8125C9.69246 37.4203 7.8713 33.0541 7.64181 28.4647H13.4533ZM18.1567 37.971C20.4622 40.0203 23.3805 41.2501 26.4575 41.4689V47.2802C21.841 47.0491 17.4514 45.2077 14.0518 42.076L18.1567 37.971ZM28.2414 41.4831C31.3441 41.3126 34.3016 40.1137 36.647 38.0755L40.7537 42.1821C37.3125 45.3015 32.8826 47.1095 28.2414 47.2888V41.4831ZM27.4609 39.7214C25.0362 39.7214 22.6658 39.0024 20.6497 37.6553C18.6335 36.3082 17.0622 34.3935 16.1342 32.1533C15.2063 29.9131 14.9635 27.4481 15.4365 25.0699C15.9095 22.6917 17.0771 20.5072 18.7917 18.7926C20.5063 17.078 22.6907 15.9103 25.0689 15.4373C27.4471 14.9642 29.9122 15.2069 32.1524 16.1348C34.3926 17.0626 36.3074 18.634 37.6546 20.6501C39.0018 22.6661 39.7209 25.0364 39.7209 27.4612C39.7172 30.7116 38.4244 33.8278 36.126 36.1262C33.8276 38.4246 30.7114 39.7174 27.4609 39.7211V39.7214ZM42.0222 40.9284L37.9185 36.8247C39.9988 34.5105 41.2481 31.5686 41.4686 28.4647H47.2801C47.0475 33.1081 45.1858 37.521 42.0222 40.928V40.9284Z" fill="#FF4646"/>
<path d="M33.1473 26.6808H31.2089C31.0556 25.9515 30.6934 25.2827 30.1665 24.7558C29.6396 24.2289 28.9707 23.8667 28.2415 23.7133V21.775C28.2415 21.5384 28.1475 21.3116 27.9802 21.1443C27.813 20.977 27.5861 20.8831 27.3495 20.8831C27.113 20.8831 26.8861 20.977 26.7188 21.1443C26.5515 21.3116 26.4576 21.5384 26.4576 21.775V23.7675C25.7765 23.9539 25.16 24.3244 24.6758 24.8383C24.1916 25.3523 23.8585 25.9898 23.7131 26.6808H21.7748C21.5382 26.6808 21.3113 26.7747 21.1441 26.942C20.9768 27.1093 20.8828 27.3361 20.8828 27.5727C20.8828 27.8093 20.9768 28.0361 21.1441 28.2034C21.3113 28.3707 21.5382 28.4647 21.7748 28.4647H23.7673C23.9435 29.1081 24.2843 29.6945 24.756 30.1662C25.2277 30.6379 25.8141 30.9787 26.4576 31.1549V33.1474C26.4576 33.384 26.5515 33.6109 26.7188 33.7781C26.8861 33.9454 27.113 34.0394 27.3495 34.0394C27.5861 34.0394 27.813 33.9454 27.9802 33.7781C28.1475 33.6109 28.2415 33.384 28.2415 33.1474V31.2091C28.9324 31.0637 29.5699 30.7306 30.0839 30.2464C30.5979 29.7622 30.9684 29.1457 31.1547 28.4647H33.1473C33.3838 28.4647 33.6107 28.3707 33.778 28.2034C33.9453 28.0361 34.0392 27.8093 34.0392 27.5727C34.0392 27.3361 33.9453 27.1093 33.778 26.942C33.6107 26.7747 33.3838 26.6808 33.1473 26.6808ZM27.5803 29.4993C27.5051 29.4789 27.4275 29.4684 27.3495 29.4681C27.2936 29.4683 27.2379 29.4737 27.1829 29.4842C26.7418 29.423 26.3326 29.2194 26.0177 28.9045C25.7028 28.5895 25.4992 28.1803 25.4381 27.7392C25.4486 27.6843 25.4539 27.6286 25.4541 27.5727C25.4539 27.4948 25.4434 27.4172 25.4229 27.342C25.4509 26.8701 25.6416 26.4226 25.9625 26.0754C26.2834 25.7283 26.7147 25.5032 27.1829 25.4383C27.2379 25.4488 27.2936 25.4541 27.3495 25.4543C27.4275 25.4541 27.5051 25.4436 27.5803 25.4231C28.0796 25.4528 28.5506 25.6644 28.9042 26.0181C29.2579 26.3717 29.4695 26.8428 29.4991 27.342C29.4787 27.4172 29.4682 27.4948 29.4679 27.5727C29.4681 27.6286 29.4735 27.6843 29.484 27.7392C29.4191 28.2074 29.194 28.6387 28.8469 28.9596C28.4998 29.2805 28.0522 29.4713 27.5803 29.4993Z" fill="#FF4646"/>
</svg>
