<svg width="16" height="16" viewBox="0 0 16 16" fill="none" xmlns="http://www.w3.org/2000/svg">
<path d="M10.0563 10.0563C10.1367 9.41112 10.1818 8.72019 10.1818 8C10.1818 7.27981 10.1367 6.58888 10.0563 5.94372C9.41112 5.86335 8.72019 5.81818 8 5.81818C7.27981 5.81818 6.58888 5.86335 5.94372 5.94372C5.86335 6.58888 5.81818 7.27981 5.81818 8C5.81818 8.72019 5.86335 9.41112 5.94372 10.0563C6.58888 10.1367 7.27981 10.1818 8 10.1818C8.72019 10.1818 9.41112 10.1367 10.0563 10.0563ZM9.79041 11.5531C9.21395 11.608 8.61454 11.6364 8 11.6364C7.38546 11.6364 6.78605 11.608 6.20959 11.5531C6.63636 13.361 7.346 14.5455 8 14.5455C8.654 14.5455 9.36364 13.361 9.79041 11.5531ZM9.79041 4.4469C9.36364 2.63904 8.654 1.45455 8 1.45455C7.346 1.45455 6.63636 2.63904 6.20959 4.4469C6.78605 4.39203 7.38546 4.36364 8 4.36364C8.61454 4.36364 9.21395 4.39203 9.79041 4.4469ZM10.4331 1.92169C10.8221 2.67263 11.1272 3.6089 11.3329 4.6671C12.3911 4.87277 13.3274 5.17792 14.0783 5.56692C13.414 3.90894 12.0911 2.58596 10.4331 1.92169ZM5.56692 1.92169C3.90894 2.58596 2.58596 3.90894 1.92169 5.56692C2.67263 5.17792 3.6089 4.87277 4.6671 4.6671C4.87277 3.6089 5.17792 2.67263 5.56692 1.92169ZM10.4331 14.0783C12.0911 13.414 13.414 12.0911 14.0783 10.4331C13.3274 10.8221 12.3911 11.1272 11.3329 11.3329C11.1272 12.3911 10.8221 13.3274 10.4331 14.0783ZM5.56692 14.0783C5.17792 13.3274 4.87277 12.3911 4.6671 11.3329C3.6089 11.1272 2.67263 10.8221 1.92169 10.4331C2.58596 12.0911 3.90894 13.414 5.56692 14.0783ZM11.5531 6.20959C11.608 6.78605 11.6364 7.38546 11.6364 8C11.6364 8.61454 11.608 9.21395 11.5531 9.79041C13.361 9.36364 14.5455 8.654 14.5455 8C14.5455 7.346 13.361 6.63636 11.5531 6.20959ZM4.4469 9.79041C4.39203 9.21395 4.36364 8.61454 4.36364 8C4.36364 7.38546 4.39203 6.78605 4.4469 6.20959C2.63904 6.63636 1.45455 7.346 1.45455 8C1.45455 8.654 2.63904 9.36364 4.4469 9.79041ZM8 0C12.4183 0 16 3.58172 16 8C16 12.4183 12.4183 16 8 16C3.58172 16 0 12.4183 0 8C0 3.58172 3.58172 0 8 0Z" fill="white"/>
</svg>
