<svg width="16" height="16" viewBox="0 0 16 16" fill="none" xmlns="http://www.w3.org/2000/svg">
<path d="M11.6899 4.14765L10.6751 4.92366L15.7041 6.91918L14.9535 1.65216L13.8535 2.49327C12.4535 1.05025 10.5449 0.158366 8.5013 0.0195534C4.5015 -0.251601 0.926498 2.32309 9.796e-05 6.14121L2.6459 6.75841C3.2635 4.2145 5.6471 2.49915 8.3135 2.67992C9.5861 2.76619 10.7775 3.29497 11.6899 4.14765Z" fill="white"/>
<path d="M7.3758 15.9812C11.561 16.2651 15.35 13.308 16 9.24995L13.3128 8.83606C12.88 11.5398 10.3536 13.51 7.563 13.3212C6.298 13.2351 5.1116 12.7118 4.201 11.8666L5.2134 11.088L0.177996 9.10878L0.947196 14.3733L2.0442 13.528C3.4408 14.9591 5.343 15.8445 7.3758 15.9812Z" fill="white"/>
</svg>
