<svg width="57" height="57" viewBox="0 0 57 57" fill="none" xmlns="http://www.w3.org/2000/svg">
<path d="M28.5023 56C21.2083 56 14.2131 53.1026 9.05542 47.9453C3.89778 42.7879 1.00024 35.7931 1.00024 28.4995C1.00039 24.3979 1.91804 20.3483 3.68598 16.6473C5.45393 12.9463 8.0274 9.68757 11.2179 7.10982C14.4084 4.53208 18.1351 2.70061 22.1252 1.74954C26.1152 0.798468 30.2674 0.751893 34.2778 1.61322C40.9165 3.04023 46.7927 6.87268 50.7747 12.3727C54.7568 17.8726 56.5632 24.6513 55.8462 31.4034C55.1292 38.1554 51.9394 44.4036 46.8911 48.9447C41.8427 53.4858 35.2928 55.9989 28.5023 56ZM28.5023 2.83241C22.8039 2.82893 17.2662 4.72166 12.7622 8.21231C8.25812 11.703 5.04373 16.593 3.62559 22.1119C2.20745 27.6308 2.6662 33.4646 4.92953 38.694C7.19286 43.9234 11.1321 48.2511 16.1264 50.9949C20.0354 53.1461 24.4377 54.2411 28.8991 54.1722C33.3605 54.1032 37.7268 52.8726 41.5675 50.6016C45.4082 48.3307 48.5905 45.0978 50.8007 41.222C53.0108 37.3461 54.1724 32.9612 54.1709 28.4995C54.1737 26.6872 53.98 24.88 53.5934 23.1094C52.5547 18.2779 50.1432 13.8489 46.6485 10.3544C43.1538 6.85991 38.7246 4.44855 33.8927 3.40992C32.1221 3.02331 30.3147 2.82968 28.5023 2.83241Z" fill="#FF4646" stroke="#FF4646" stroke-width="0.4"/>
<path d="M28.5023 56C21.2083 56 14.213 53.1026 9.05536 47.9453C3.89772 42.7879 1.00018 35.7931 1.00018 28.4995C0.986631 24.8119 1.7214 21.1598 3.16004 17.7644C4.59867 14.3689 6.71126 11.3005 9.36998 8.745L9.66334 8.45166H10.085C18.3728 9.1791 26.2272 12.4732 32.5542 17.8752C37.0206 21.649 40.6118 26.35 43.0783 31.6514C45.5447 36.9529 46.8273 42.7278 46.837 48.5749V48.9874L46.5253 49.2624C41.5249 53.605 35.1253 55.9974 28.5023 56ZM10.3417 10.3584C7.52659 13.1744 5.40524 16.6067 4.14543 20.3838C2.88562 24.161 2.52191 28.1795 3.08305 32.1214C3.64419 36.0634 5.11479 39.8208 7.37857 43.0964C9.64234 46.3721 12.6372 49.0762 16.1263 50.9949C20.6646 53.4893 25.8512 54.5528 31.005 54.0457C36.1588 53.5385 41.0386 51.4844 45.0035 48.1532C44.9296 42.6428 43.6735 37.2126 41.3201 32.2295C38.9668 27.2463 35.5711 22.8264 31.3625 19.2685C25.4287 14.2236 18.0936 11.1145 10.3417 10.3584Z" fill="#FF4646" stroke="#FF4646" stroke-width="0.4"/>
<path d="M28.5023 55.9999C23.8691 55.9986 19.3107 54.8322 15.2463 52.6082L14.7512 52.3332V51.8015C14.7512 51.3615 14.7512 50.9307 14.7512 50.4815C14.7526 42.9736 16.8497 35.6151 20.8064 29.2343C24.7631 22.8534 30.4223 17.7035 37.1471 14.3642C40.8346 12.5398 44.7844 11.3027 48.8538 10.6975L49.3672 10.615L49.6972 11.0183C53.0093 15.0404 55.1107 19.9205 55.7566 25.0905C56.4025 30.2605 55.5663 35.5076 53.3455 40.2208C51.1247 44.934 47.6105 48.9194 43.2123 51.713C38.8141 54.5065 33.7127 55.9932 28.5023 55.9999ZM16.5847 51.2515C20.4983 53.3029 24.8752 54.3094 29.2918 54.1735C33.7084 54.0376 38.0152 52.7639 41.7952 50.4758C45.5752 48.1876 48.7005 44.9624 50.8686 41.1124C53.0367 37.2624 54.1741 32.9179 54.1709 28.4995C54.1736 26.6872 53.9799 24.8799 53.5933 23.1094C52.771 19.2524 51.0673 15.6381 48.6154 12.5492C42.7942 13.5445 37.2799 15.8655 32.4992 19.3326C27.5729 22.9012 23.5623 27.5862 20.796 33.0037C18.0297 38.4212 16.5865 44.417 16.5847 50.4998C16.5847 50.7473 16.5847 51.004 16.5847 51.2515Z" fill="#FF4646" stroke="#FF4646" stroke-width="0.4"/>
<path d="M52.7958 23.9161C49.6737 23.9112 46.5972 23.1669 43.8182 21.744C41.0392 20.3212 38.6369 18.2603 36.8079 15.7301C34.3803 12.3792 33.0773 8.34515 33.086 4.20739C33.086 3.59627 33.1135 3.00043 33.1685 2.41986L33.2693 1.40234L34.2777 1.61318C39.4475 2.72824 44.1861 5.31018 47.9258 9.04962C51.6655 12.7891 54.2475 17.5274 55.3627 22.6969L55.5735 23.7052L54.5559 23.8061C53.9753 23.8794 53.3886 23.9161 52.7958 23.9161ZM34.9195 3.64822C34.9195 3.84072 34.9195 4.02406 34.9195 4.20739C34.9134 7.95943 36.0942 11.6173 38.293 14.6576C40.0113 17.0259 42.2808 18.9398 44.9053 20.2336C47.5298 21.5274 50.43 22.1621 53.355 22.0827C52.2087 17.6436 49.8942 13.5926 46.6521 10.3507C43.41 7.10887 39.3588 4.7945 34.9195 3.64822Z" fill="#FF4646" stroke="#FF4646" stroke-width="0.4"/>
<path d="M28.8874 56.0001H28.5023C21.2083 56.0001 14.2131 53.1027 9.05542 47.9454C3.89778 42.788 1.00024 35.7932 1.00024 28.4996V28.1146L1.2661 27.8488C4.96416 24.1509 9.9798 22.0735 15.2097 22.0735C20.4395 22.0735 25.4551 24.1509 29.1532 27.8488C32.8513 31.5466 34.9288 36.562 34.9288 41.7915C34.9288 47.021 32.8513 52.0364 29.1532 55.7342L28.8874 56.0001ZM2.83372 28.8846C2.93311 35.5589 5.62881 41.9319 10.349 46.6518C15.0692 51.3718 21.4426 54.0673 28.1173 54.1667C31.3132 50.7825 33.0638 46.2858 32.9972 41.6317C32.9305 36.9775 31.0519 32.5327 27.7605 29.2414C24.469 25.9501 20.0239 24.0716 15.3695 24.005C10.7151 23.9384 6.21808 25.6889 2.83372 28.8846Z" fill="#FF4646" stroke="#FF4646" stroke-width="0.4"/>
</svg>
