<svg width="59" height="55" viewBox="0 0 59 55" fill="none" xmlns="http://www.w3.org/2000/svg">
<path d="M29.9368 54.9999H3.71479C1.66619 54.9999 0 53.3396 0 51.2983V15.7624C0 13.7211 1.66619 12.0608 3.71479 12.0608H29.9368C31.9843 12.0608 33.6505 13.7211 33.6505 15.7624V51.2983C33.6516 53.3385 31.9843 54.9999 29.9368 54.9999ZM3.71479 14.2371C2.87131 14.2371 2.18517 14.9209 2.18517 15.7614V51.2972C2.18517 52.1377 2.87131 52.8214 3.71479 52.8214H29.9368C30.7792 52.8214 31.4653 52.1377 31.4653 51.2972V15.7614C31.4653 14.9209 30.7792 14.2371 29.9368 14.2371H3.71479Z" fill="#FF4646"/>
<path d="M41.3511 50.3283C40.8583 50.3283 40.3677 50.2292 39.9001 50.0333L32.1329 46.7475C31.5768 46.5123 31.3179 45.8722 31.5539 45.3191C31.791 44.765 32.4323 44.5091 32.9873 44.7421L40.7545 48.0278C41.1315 48.1879 41.5488 48.1901 41.9247 48.0387C42.3038 47.8863 42.5999 47.5967 42.7594 47.2211L56.6942 14.5105C57.0242 13.7364 56.6604 12.8404 55.8835 12.5105L31.7451 2.3016C31.3681 2.14156 30.954 2.13829 30.5749 2.29071C30.1958 2.44313 29.8997 2.73273 29.7402 3.10834L27.1354 9.21824C26.9005 9.7724 26.257 10.0282 25.7031 9.79526C25.1469 9.5601 24.888 8.91993 25.1251 8.36686L27.7287 2.25696C28.1155 1.34679 28.8366 0.641299 29.7555 0.271135C30.6754 -0.100119 31.685 -0.0892317 32.5995 0.298353L56.7368 10.5062C58.6215 11.3042 59.5044 13.4817 58.7057 15.3608L44.7709 48.0714C44.3841 48.9816 43.663 49.6871 42.743 50.0572C42.2929 50.238 41.8209 50.3283 41.3511 50.3283Z" fill="#FF4646"/>
<path d="M25.4922 32.0313C24.8891 32.0313 24.3996 31.5447 24.3996 30.9426C24.3996 29.0352 23.1246 27.8038 21.9304 27.2867C20.7416 26.7728 18.9717 26.6846 17.571 27.9867C17.1296 28.3972 16.4401 28.3721 16.0271 27.9334C15.6152 27.4935 15.6404 26.8044 16.0807 26.3939C17.8976 24.7042 20.474 24.2818 22.8012 25.29C25.136 26.3014 26.5848 28.4669 26.5848 30.9426C26.5848 31.5447 26.0964 32.0313 25.4922 32.0313Z" fill="#FF4646"/>
<path d="M8.15826 32.0314C7.55515 32.0314 7.06567 31.5447 7.06567 30.9427C7.06567 28.468 8.51226 26.3026 10.8406 25.2944C13.1754 24.2852 15.7528 24.7054 17.5709 26.394C18.0123 26.8045 18.0363 27.4936 17.6244 27.9335C17.2125 28.3722 16.5209 28.3973 16.0806 27.9868C14.681 26.6858 12.9066 26.7751 11.7124 27.2922C10.5226 27.8072 9.25084 29.0374 9.25084 30.9438C9.25084 31.5447 8.76246 32.0314 8.15826 32.0314Z" fill="#FF4646"/>
<path d="M16.8248 42.3403C16.6696 42.3403 16.5134 42.3076 16.3648 42.238C13.571 40.9424 7.07344 37.2473 7.0647 30.9436C7.0647 30.3426 7.55308 29.8548 8.15728 29.8538C8.76148 29.8538 9.24987 30.3404 9.24987 30.9414C9.25642 35.9941 14.8723 39.1438 17.2858 40.2641C17.8321 40.5167 18.0692 41.1656 17.8146 41.7099C17.6311 42.1073 17.2356 42.3403 16.8248 42.3403Z" fill="#FF4646"/>
<path d="M16.8259 42.3404C16.414 42.3404 16.0196 42.1074 15.8349 41.7111C15.5803 41.1657 15.8174 40.5179 16.3648 40.2642C18.7783 39.1472 24.391 36.0019 24.3997 30.9415C24.4019 30.3406 24.8903 29.855 25.4923 29.855C25.4934 29.855 25.4945 29.855 25.4945 29.855C26.0987 29.8561 26.587 30.3438 26.5849 30.9459C26.5739 37.2583 20.0785 40.948 17.2859 42.2403C17.1384 42.3089 16.9799 42.3404 16.8259 42.3404Z" fill="#FF4646"/>
<path d="M28.1888 50.645C27.5857 50.645 27.0962 50.1584 27.0962 49.5563V46.2901C27.0962 45.6881 27.5857 45.2014 28.1888 45.2014C28.7919 45.2014 29.2814 45.6881 29.2814 46.2901V49.5563C29.2814 50.1584 28.7919 50.645 28.1888 50.645Z" fill="#FF4646"/>
<path d="M5.46295 21.8582C4.85875 21.8582 4.37036 21.3715 4.37036 20.7694V17.5033C4.37036 16.9012 4.85875 16.4146 5.46295 16.4146C6.06714 16.4146 6.55553 16.9012 6.55553 17.5033V20.7694C6.55553 21.3715 6.06714 21.8582 5.46295 21.8582Z" fill="#FF4646"/>
<path d="M40.4244 45.4302C40.2812 45.4302 40.137 45.403 39.9972 45.3442C39.441 45.109 39.1821 44.4699 39.4181 43.9158L40.6986 40.9087C40.9357 40.3546 41.576 40.0998 42.1321 40.3317C42.6882 40.5669 42.9471 41.2059 42.7111 41.7601L41.4306 44.7671C41.2536 45.1809 40.8494 45.4302 40.4244 45.4302Z" fill="#FF4646"/>
<path d="M30.7934 10.0837C30.6503 10.0837 30.5049 10.0565 30.3662 9.9977C29.8112 9.76253 29.5511 9.12346 29.7882 8.5693L31.0687 5.56225C31.3047 5.00809 31.9461 4.75224 32.5011 4.98523C33.0572 5.22039 33.3162 5.85947 33.0802 6.41363L31.7997 9.42068C31.6216 9.83439 31.2173 10.0837 30.7934 10.0837Z" fill="#FF4646"/>
<path d="M32.8627 34.2032C32.7174 34.2032 32.572 34.1749 32.4355 34.1172C32.1372 33.9909 31.911 33.7383 31.8171 33.4291L31.5133 32.4264C31.3385 31.8516 31.6652 31.243 32.2432 31.0699C32.7327 30.9185 33.2538 31.1385 33.5018 31.562L41.5837 27.4205L38.9669 18.7793L33.0571 21.807C32.5174 22.0825 31.8608 21.8702 31.5854 21.3356C31.3101 20.8011 31.521 20.1446 32.0585 19.8691L39.1352 16.2437C39.4225 16.0967 39.7623 16.0847 40.0617 16.2099C40.36 16.3362 40.5872 16.5888 40.6801 16.898L43.9382 27.6589C44.0912 28.1619 43.8617 28.7019 43.3919 28.9425L33.3609 34.0824C33.2068 34.1629 33.0342 34.2032 32.8627 34.2032Z" fill="#FF4646"/>
</svg>
