<svg width="19" height="17" viewBox="0 0 19 17" fill="none" xmlns="http://www.w3.org/2000/svg">
<path d="M19 2.60881C18.2934 2.91875 17.5406 3.12419 16.7556 3.22394C17.5631 2.74181 18.1794 1.98419 18.4692 1.071C17.7163 1.51987 16.8851 1.83694 15.9992 2.01388C15.2843 1.25269 14.2654 0.78125 13.1539 0.78125C10.9974 0.78125 9.26131 2.53163 9.26131 4.67744C9.26131 4.98619 9.28744 5.28306 9.35156 5.56569C6.11325 5.40775 3.24781 3.85569 1.32287 1.49138C0.986812 2.07444 0.789688 2.74181 0.789688 3.46025C0.789688 4.80925 1.48438 6.00506 2.51988 6.69737C1.89406 6.6855 1.28013 6.50381 0.76 6.21763C0.76 6.2295 0.76 6.24494 0.76 6.26038C0.76 8.15325 2.11019 9.7255 3.88075 10.0877C3.56369 10.1744 3.21812 10.2159 2.8595 10.2159C2.61013 10.2159 2.35837 10.2017 2.12206 10.1494C2.62675 11.692 4.05888 12.8261 5.76175 12.8629C4.4365 13.8996 2.75381 14.5242 0.932188 14.5242C0.61275 14.5242 0.306375 14.5099 0 14.4707C1.72544 15.5834 3.77031 16.2188 5.9755 16.2188C13.1432 16.2188 17.062 10.2812 17.062 5.13462C17.062 4.96244 17.0561 4.79619 17.0478 4.63113C17.8208 4.0825 18.4704 3.39731 19 2.60881Z" fill="#FF4646"/>
</svg>
