<svg width="54" height="57" viewBox="0 0 54 57" fill="none" xmlns="http://www.w3.org/2000/svg">
<path d="M18.8096 13.0047C19.5552 11.3919 18.8615 9.47838 17.2581 8.72824C15.6483 7.97683 13.7527 8.68343 13.0125 10.2913C12.2678 11.9022 12.9598 13.8172 14.5632 14.5673C16.1609 15.3164 18.0674 14.6151 18.8096 13.0047ZM15.1028 13.3998C14.1398 12.9478 13.7254 11.8006 14.1726 10.834C14.6213 9.86122 15.7636 9.44855 16.7185 9.89664C17.6804 10.3464 18.0965 11.4949 17.6504 12.4612C17.204 13.4274 16.0622 13.8468 15.1028 13.3998Z" fill="#FF4646" stroke="#FF4646" stroke-width="0.6"/>
<path d="M29.6527 21.6288C31.2505 22.3779 33.1565 21.677 33.8992 20.067C33.8992 20.067 33.9 20.067 33.9 20.0662C34.642 18.4566 33.9458 16.5383 32.3468 15.7893C30.7487 15.0419 28.8441 15.744 28.1004 17.3536C27.358 18.9669 28.0503 20.88 29.6527 21.6288ZM29.2605 17.8963C29.7046 16.9339 30.844 16.5079 31.808 16.9577C32.7666 17.4073 33.1846 18.5581 32.7391 19.5243C32.2935 20.4897 31.1526 20.9108 30.1915 20.4604C29.233 20.0125 28.8158 18.8617 29.2605 17.8963Z" fill="#FF4646" stroke="#FF4646" stroke-width="0.6"/>
<path d="M11.9416 20.25C10.3434 19.5026 8.43797 20.2047 7.69511 21.8143C6.95276 23.4276 7.64503 25.3407 9.24745 26.0895C10.8452 26.8386 12.7513 26.1377 13.4939 24.5277C13.4939 24.5277 13.4947 24.5277 13.4947 24.5269C14.2368 22.9173 13.5405 20.999 11.9416 20.25ZM12.3338 23.985C11.8891 24.9504 10.7473 25.3715 9.78628 24.9211C8.82773 24.4732 8.41049 23.3224 8.8552 22.357C9.29934 21.3946 10.4387 20.9686 11.4027 21.4184C12.3613 21.868 12.7794 23.0188 12.3338 23.985Z" fill="#FF4646" stroke="#FF4646" stroke-width="0.6"/>
<path d="M49.9172 24.4178H36.491L40.3075 16.1433C40.3075 16.1424 40.3075 16.1424 40.3075 16.1416C41.0321 14.5647 40.3459 12.6792 38.7769 11.9377L16.0323 1.29577C15.2702 0.940962 14.4191 0.904064 13.633 1.19217C12.8451 1.48113 12.218 2.06282 11.8666 2.82861L1.2917 25.7438C0.563826 27.3182 1.24506 29.2004 2.81322 29.9411L21.6903 38.7694V52.8387C21.6903 54.5816 23.0977 56 24.8283 56H49.9172C51.6428 56 53.0469 54.5816 53.0469 52.8387V27.5782C53.0469 25.8353 51.6428 24.4178 49.9172 24.4178ZM3.35371 28.7735C2.42514 28.3348 2.0204 27.2192 2.45096 26.2874L13.0267 3.37046C13.2349 2.91711 13.6055 2.57363 14.071 2.40294C14.2784 2.32703 14.4932 2.28887 14.7081 2.28887C14.9763 2.28887 15.2436 2.34801 15.4934 2.46459L38.2355 13.1052C39.1674 13.5456 39.5755 14.6645 39.1466 15.5998L35.0801 24.4178H24.8283C23.0977 24.4178 21.6903 25.8353 21.6903 27.5782V37.3491L3.35371 28.7735ZM51.7677 52.8387C51.7677 53.8712 50.9374 54.7117 49.9172 54.7117H24.8283C23.8031 54.7117 22.9695 53.8712 22.9695 52.8387C22.9695 34.8252 22.9695 41.6218 22.9695 27.5782C22.9695 26.5457 23.8031 25.7061 24.8283 25.7061C34.1456 25.7061 35.2563 25.7061 49.9172 25.7061C50.9549 25.7061 51.7677 26.5281 51.7677 27.5782V52.8387H51.7677Z" fill="#FF4646" stroke="#FF4646" stroke-width="0.6"/>
<path d="M29.0515 28.6084C27.2893 28.6084 25.8552 30.0528 25.8552 31.8276C25.8552 33.6033 27.2893 35.0476 29.0515 35.0476C30.8146 35.0476 32.2486 33.6033 32.2486 31.8276C32.2486 30.0528 30.8146 28.6084 29.0515 28.6084ZM29.0515 33.7593C27.9947 33.7593 27.1344 32.8928 27.1344 31.8276C27.1344 30.7632 27.9947 29.8968 29.0515 29.8968C30.1092 29.8968 30.9695 30.7632 30.9695 31.8276C30.9695 32.8928 30.1092 33.7593 29.0515 33.7593Z" fill="#FF4646" stroke="#FF4646" stroke-width="0.6"/>
<path d="M45.6908 28.6084C43.9277 28.6084 42.4937 30.0528 42.4937 31.8276C42.4937 33.6033 43.9277 35.0476 45.6908 35.0476C47.453 35.0476 48.8871 33.6033 48.8871 31.8276C48.8871 30.0528 47.453 28.6084 45.6908 28.6084ZM45.6908 33.7593C44.6331 33.7593 43.7728 32.8928 43.7728 31.8276C43.7728 30.7632 44.6331 29.8968 45.6908 29.8968C46.7476 29.8968 47.6079 30.7632 47.6079 31.8276C47.6079 32.8928 46.7476 33.7593 45.6908 33.7593Z" fill="#FF4646" stroke="#FF4646" stroke-width="0.6"/>
<path d="M29.0515 45.366C27.2893 45.366 25.8552 46.8103 25.8552 48.586C25.8552 50.3608 27.2893 51.8052 29.0515 51.8052C30.8146 51.8052 32.2486 50.3608 32.2486 48.586C32.2486 46.8103 30.8146 45.366 29.0515 45.366ZM29.0515 50.5169C27.9947 50.5169 27.1344 49.6504 27.1344 48.586C27.1344 47.5208 27.9947 46.6543 29.0515 46.6543C30.1092 46.6543 30.9695 47.5208 30.9695 48.586C30.9695 49.6504 30.1092 50.5169 29.0515 50.5169Z" fill="#FF4646" stroke="#FF4646" stroke-width="0.6"/>
<path d="M45.6908 45.366C43.9277 45.366 42.4937 46.8103 42.4937 48.586C42.4937 50.3608 43.9277 51.8052 45.6908 51.8052C47.453 51.8052 48.8871 50.3608 48.8871 48.586C48.8871 46.8103 47.453 45.366 45.6908 45.366ZM45.6908 50.5169C44.6331 50.5169 43.7728 49.6504 43.7728 48.586C43.7728 47.5208 44.6331 46.6543 45.6908 46.6543C46.7476 46.6543 47.6079 47.5208 47.6079 48.586C47.6079 49.6504 46.7476 50.5169 45.6908 50.5169Z" fill="#FF4646" stroke="#FF4646" stroke-width="0.6"/>
<path d="M37.3711 36.9868C35.6089 36.9868 34.1748 38.4312 34.1748 40.2069C34.1748 41.9817 35.6089 43.4261 37.3711 43.4261C39.1341 43.4261 40.5682 41.9817 40.5682 40.2069C40.5682 38.4312 39.1341 36.9868 37.3711 36.9868ZM37.3711 42.1377C36.3143 42.1377 35.454 41.2713 35.454 40.2069C35.454 39.1416 36.3143 38.2752 37.3711 38.2752C38.4287 38.2752 39.289 39.1416 39.289 40.2069C39.289 41.2713 38.4288 42.1377 37.3711 42.1377Z" fill="#FF4646" stroke="#FF4646" stroke-width="0.6"/>
</svg>
