<svg width="65" height="57" viewBox="0 0 65 57" fill="none" xmlns="http://www.w3.org/2000/svg">
<path d="M31.8864 55.6994C31.9564 55.7927 32.0473 55.8685 32.1517 55.9206C32.2561 55.9728 32.3712 56 32.4879 56C32.6046 56 32.7198 55.9728 32.8242 55.9206C32.9286 55.8685 33.0194 55.7927 33.0894 55.6994L56.2024 32.5573C56.3157 32.4443 56.3899 32.2981 56.4143 32.1399C56.4386 31.9818 56.4118 31.8201 56.3378 31.6782L48.6986 17.2896C48.6347 17.1696 48.5394 17.0692 48.4229 16.9991C48.3063 16.9289 48.173 16.8917 48.0369 16.8914H16.9539C16.8179 16.8917 16.6845 16.9289 16.568 16.9991C16.4515 17.0692 16.3562 17.1696 16.2923 17.2896L8.6531 31.6782C8.57907 31.8201 8.55227 31.9818 8.57662 32.1399C8.60096 32.2981 8.67516 32.4443 8.78844 32.5573L31.8864 55.6994ZM41.0218 32.7827L32.4954 53.295L24.0217 32.7827H41.0218ZM24.2247 31.28L32.4954 19.2582L40.7662 31.28H24.2247ZM42.6234 32.7827H53.8566L34.6233 52.0553L42.6234 32.7827ZM43.2474 31.28L48.1798 19.4836L54.4205 31.28H43.2474ZM41.9692 30.446L33.6985 18.4241H47.0144L41.9692 30.446ZM23.0066 30.3934L18.0517 18.3715H31.2548L23.0066 30.3934ZM21.7735 31.28H10.5704L16.8712 19.4084L21.7735 31.28ZM22.3976 32.7827L30.345 52.0252L11.1343 32.7827H22.3976Z" fill="#FF4646" stroke="#FF4646" stroke-width="0.4"/>
<path d="M33.2472 1H31.7435V12.0225H33.2472V1Z" fill="#FF4646" stroke="#FF4646" stroke-width="0.4"/>
<path d="M62.9367 8.83968L55.1372 16.6338L56.2005 17.6964L64.0001 9.90227L62.9367 8.83968Z" fill="#FF4646" stroke="#FF4646" stroke-width="0.4"/>
<path d="M2.06333 8.8461L1 9.90869L8.79952 17.7028L9.86285 16.6402L2.06333 8.8461Z" fill="#FF4646" stroke="#FF4646" stroke-width="0.4"/>
</svg>
