<svg width="135" height="61" viewBox="0 0 135 61" fill="none" xmlns="http://www.w3.org/2000/svg">
<path d="M22.4786 16.5493L19.8291 19.7342L29.2308 31H18.7179L14.6154 26.0088L10.4701 31H0L9.35897 19.7342L14.6154 13.4595L17.265 10.2746L22.4786 4L27.735 10.2746L45 31H34.5299L22.4786 16.5493Z" fill="url(#paint0_linear)"/>
<path d="M48.7739 31V9.94H57.8739V13.086H53.4279V18.39H57.3019V21.64H53.4279V31H48.7739ZM58.2716 31L62.2496 9.94H67.5536L71.4796 31H67.1896L66.4876 26.554H63.3936L62.6656 31H58.2716ZM63.8096 23.772H66.0456L64.9276 15.556L63.8096 23.772ZM75.6014 31L71.8054 9.94H75.7834L78.0454 24.24L80.1514 9.94H84.3634L80.5154 31H75.6014ZM92.257 31.312C90.6797 31.312 89.4317 31.0347 88.513 30.48C87.5944 29.9253 86.9357 29.128 86.537 28.088C86.1384 27.048 85.939 25.8087 85.939 24.37V16.544C85.939 15.088 86.1384 13.8487 86.537 12.826C86.9357 11.8033 87.5944 11.0233 88.513 10.486C89.4317 9.93133 90.6797 9.654 92.257 9.654C93.8517 9.654 95.1084 9.93133 96.027 10.486C96.963 11.0233 97.6304 11.8033 98.029 12.826C98.4277 13.8487 98.627 15.088 98.627 16.544V24.37C98.627 25.8087 98.4277 27.048 98.029 28.088C97.6304 29.128 96.963 29.9253 96.027 30.48C95.1084 31.0347 93.8517 31.312 92.257 31.312ZM92.257 28.01C92.7424 28.01 93.0977 27.8887 93.323 27.646C93.5484 27.4033 93.6957 27.0913 93.765 26.71C93.8344 26.3287 93.869 25.9387 93.869 25.54V15.4C93.869 14.984 93.8344 14.594 93.765 14.23C93.6957 13.8487 93.5484 13.5367 93.323 13.294C93.0977 13.0513 92.7424 12.93 92.257 12.93C91.8064 12.93 91.4684 13.0513 91.243 13.294C91.0177 13.5367 90.8704 13.8487 90.801 14.23C90.7317 14.594 90.697 14.984 90.697 15.4V25.54C90.697 25.9387 90.723 26.3287 90.775 26.71C90.8444 27.0913 90.983 27.4033 91.191 27.646C91.4164 27.8887 91.7717 28.01 92.257 28.01ZM101.459 31V9.94H107.257C108.679 9.94 109.909 10.096 110.949 10.408C111.989 10.72 112.795 11.2833 113.367 12.098C113.957 12.8953 114.251 14.0307 114.251 15.504C114.251 16.3707 114.182 17.142 114.043 17.818C113.905 18.494 113.645 19.0833 113.263 19.586C112.899 20.0713 112.371 20.4787 111.677 20.808L114.563 31H109.753L107.439 21.562H106.113V31H101.459ZM106.113 18.884H107.413C108.072 18.884 108.583 18.7713 108.947 18.546C109.311 18.3033 109.563 17.9653 109.701 17.532C109.857 17.0813 109.935 16.544 109.935 15.92C109.935 15.0187 109.771 14.3167 109.441 13.814C109.112 13.3113 108.505 13.06 107.621 13.06H106.113V18.884ZM116.974 31V9.94H121.628V31H116.974ZM126.666 31V13.398H123.494V9.94H134.492V13.398H131.346V31H126.666Z" fill="white"/>
<path opacity="0.5" d="M5.47852 44.3193C5.47852 45.1917 5.25879 45.8737 4.81934 46.3652C4.37988 46.8535 3.77279 47.0977 2.99805 47.0977C2.51953 47.0977 2.09473 46.9854 1.72363 46.7607C1.35254 46.5361 1.06608 46.2139 0.864258 45.7939C0.662435 45.374 0.561523 44.8825 0.561523 44.3193C0.561523 43.4469 0.779622 42.7682 1.21582 42.2832C1.65202 41.7949 2.25749 41.5508 3.03223 41.5508C3.78092 41.5508 4.375 41.7998 4.81445 42.2979C5.25716 42.7959 5.47852 43.4697 5.47852 44.3193ZM1.40137 44.3193C1.40137 45.0029 1.53809 45.5238 1.81152 45.8818C2.08496 46.2399 2.48698 46.4189 3.01758 46.4189C3.54818 46.4189 3.9502 46.2415 4.22363 45.8867C4.50033 45.5286 4.63867 45.0062 4.63867 44.3193C4.63867 43.639 4.50033 43.123 4.22363 42.7715C3.9502 42.4167 3.54492 42.2393 3.00781 42.2393C2.47721 42.2393 2.07682 42.4134 1.80664 42.7617C1.53646 43.11 1.40137 43.6292 1.40137 44.3193ZM12.7164 47V43.5381C12.7164 43.1019 12.6171 42.7764 12.4186 42.5615C12.22 42.3467 11.9091 42.2393 11.4859 42.2393C10.926 42.2393 10.5159 42.3906 10.2555 42.6934C9.99505 42.9961 9.86484 43.4958 9.86484 44.1924V47H9.0543V41.6484H9.71348L9.84531 42.3809H9.88437C10.0504 42.1172 10.2831 41.9137 10.5826 41.7705C10.8821 41.624 11.2158 41.5508 11.5836 41.5508C12.2281 41.5508 12.7132 41.707 13.0387 42.0195C13.3642 42.3288 13.527 42.8252 13.527 43.5088V47H12.7164ZM18.1574 47H17.3469V39.4023H18.1574V47ZM22.8367 47H22.0262V41.6484H22.8367V47ZM21.9578 40.1982C21.9578 40.0127 22.0034 39.8776 22.0945 39.793C22.1857 39.7051 22.2996 39.6611 22.4363 39.6611C22.5665 39.6611 22.6788 39.7051 22.7732 39.793C22.8676 39.8809 22.9148 40.016 22.9148 40.1982C22.9148 40.3805 22.8676 40.5173 22.7732 40.6084C22.6788 40.6963 22.5665 40.7402 22.4363 40.7402C22.2996 40.7402 22.1857 40.6963 22.0945 40.6084C22.0034 40.5173 21.9578 40.3805 21.9578 40.1982ZM30.3676 47V43.5381C30.3676 43.1019 30.2683 42.7764 30.0697 42.5615C29.8712 42.3467 29.5603 42.2393 29.1371 42.2393C28.5772 42.2393 28.1671 42.3906 27.9066 42.6934C27.6462 42.9961 27.516 43.4958 27.516 44.1924V47H26.7055V41.6484H27.3646L27.4965 42.3809H27.5355C27.7016 42.1172 27.9343 41.9137 28.2338 41.7705C28.5333 41.624 28.8669 41.5508 29.2348 41.5508C29.8793 41.5508 30.3643 41.707 30.6898 42.0195C31.0154 42.3288 31.1781 42.8252 31.1781 43.5088V47H30.3676ZM37.2588 47.0977C36.4678 47.0977 35.8428 46.8568 35.3838 46.375C34.9281 45.8932 34.7002 45.2243 34.7002 44.3682C34.7002 43.5055 34.9118 42.8203 35.335 42.3125C35.7614 41.8047 36.3327 41.5508 37.0488 41.5508C37.7194 41.5508 38.25 41.7721 38.6406 42.2148C39.0312 42.6543 39.2266 43.2354 39.2266 43.958V44.4707H35.54C35.5563 45.099 35.7142 45.5758 36.0137 45.9014C36.3164 46.2269 36.7412 46.3896 37.2881 46.3896C37.8643 46.3896 38.4339 46.2692 38.9971 46.0283V46.751C38.7106 46.8747 38.4388 46.9626 38.1816 47.0146C37.9277 47.07 37.6201 47.0977 37.2588 47.0977ZM37.0391 42.2295C36.6094 42.2295 36.266 42.3695 36.0088 42.6494C35.7549 42.9294 35.6051 43.3167 35.5596 43.8115H38.3574C38.3574 43.3005 38.2435 42.9098 38.0156 42.6396C37.7878 42.3662 37.4622 42.2295 37.0391 42.2295ZM49.6496 47.0977C48.8749 47.0977 48.2743 46.86 47.8479 46.3848C47.4247 45.9062 47.2131 45.2308 47.2131 44.3584C47.2131 43.4632 47.4279 42.7715 47.8576 42.2832C48.2906 41.7949 48.9058 41.5508 49.7033 41.5508C49.9605 41.5508 50.2176 41.5785 50.4748 41.6338C50.732 41.6891 50.9338 41.7542 51.0803 41.8291L50.8312 42.5176C50.6522 42.446 50.4569 42.3874 50.2453 42.3418C50.0337 42.293 49.8465 42.2686 49.6838 42.2686C48.5965 42.2686 48.0529 42.9619 48.0529 44.3486C48.0529 45.0062 48.1848 45.5107 48.4484 45.8623C48.7154 46.2139 49.1092 46.3896 49.6301 46.3896C50.076 46.3896 50.5334 46.2936 51.0021 46.1016V46.8193C50.6441 47.0049 50.1932 47.0977 49.6496 47.0977ZM57.7176 47L57.5564 46.2383H57.5174C57.2505 46.5736 56.9835 46.8014 56.7166 46.9219C56.4529 47.0391 56.1225 47.0977 55.7254 47.0977C55.1948 47.0977 54.7781 46.9609 54.4754 46.6875C54.1759 46.4141 54.0262 46.0251 54.0262 45.5205C54.0262 44.4398 54.8904 43.8734 56.6189 43.8213L57.5271 43.792V43.46C57.5271 43.04 57.436 42.7308 57.2537 42.5322C57.0747 42.3304 56.7866 42.2295 56.3895 42.2295C55.9435 42.2295 55.4389 42.3662 54.8758 42.6396L54.6268 42.0195C54.8904 41.8763 55.1785 41.764 55.491 41.6826C55.8068 41.6012 56.1225 41.5605 56.4383 41.5605C57.0763 41.5605 57.5483 41.7021 57.8543 41.9854C58.1635 42.2686 58.3182 42.7227 58.3182 43.3477V47H57.7176ZM55.8865 46.4287C56.3911 46.4287 56.7866 46.2904 57.073 46.0137C57.3628 45.737 57.5076 45.3496 57.5076 44.8516V44.3682L56.6971 44.4023C56.0525 44.4251 55.587 44.526 55.3006 44.7051C55.0174 44.8809 54.8758 45.1559 54.8758 45.5303C54.8758 45.8232 54.9637 46.0462 55.1395 46.1992C55.3185 46.3522 55.5675 46.4287 55.8865 46.4287ZM65.5951 45.54C65.5951 46.0381 65.4096 46.4222 65.0385 46.6924C64.6674 46.9626 64.1466 47.0977 63.476 47.0977C62.7663 47.0977 62.213 46.9854 61.8158 46.7607V46.0088C62.073 46.139 62.348 46.2415 62.641 46.3164C62.9372 46.3913 63.2221 46.4287 63.4955 46.4287C63.9187 46.4287 64.2442 46.362 64.4721 46.2285C64.6999 46.0918 64.8139 45.8851 64.8139 45.6084C64.8139 45.4001 64.7227 45.2227 64.5404 45.0762C64.3614 44.9264 64.0098 44.7507 63.4857 44.5488C62.9877 44.3633 62.6329 44.2021 62.4213 44.0654C62.213 43.9255 62.0567 43.7676 61.9525 43.5918C61.8516 43.416 61.8012 43.2061 61.8012 42.9619C61.8012 42.5257 61.9786 42.1823 62.3334 41.9316C62.6882 41.6777 63.1749 41.5508 63.7934 41.5508C64.3695 41.5508 64.9327 41.668 65.4828 41.9023L65.1947 42.5615C64.6576 42.3402 64.171 42.2295 63.7348 42.2295C63.3507 42.2295 63.0609 42.2897 62.8656 42.4102C62.6703 42.5306 62.5727 42.6966 62.5727 42.9082C62.5727 43.0514 62.6085 43.1735 62.6801 43.2744C62.755 43.3753 62.8738 43.4714 63.0365 43.5625C63.1993 43.6536 63.5118 43.7855 63.974 43.958C64.6088 44.1891 65.0369 44.4219 65.2582 44.6562C65.4828 44.8906 65.5951 45.1852 65.5951 45.54ZM69.8789 47H69.0684V41.6484H69.8789V47ZM69 40.1982C69 40.0127 69.0456 39.8776 69.1367 39.793C69.2279 39.7051 69.3418 39.6611 69.4785 39.6611C69.6087 39.6611 69.721 39.7051 69.8154 39.793C69.9098 39.8809 69.957 40.016 69.957 40.1982C69.957 40.3805 69.9098 40.5173 69.8154 40.6084C69.721 40.6963 69.6087 40.7402 69.4785 40.7402C69.3418 40.7402 69.2279 40.6963 69.1367 40.6084C69.0456 40.5173 69 40.3805 69 40.1982ZM77.4098 47V43.5381C77.4098 43.1019 77.3105 42.7764 77.1119 42.5615C76.9133 42.3467 76.6025 42.2393 76.1793 42.2393C75.6194 42.2393 75.2092 42.3906 74.9488 42.6934C74.6884 42.9961 74.5582 43.4958 74.5582 44.1924V47H73.7477V41.6484H74.4068L74.5387 42.3809H74.5777C74.7438 42.1172 74.9765 41.9137 75.276 41.7705C75.5755 41.624 75.9091 41.5508 76.277 41.5508C76.9215 41.5508 77.4065 41.707 77.732 42.0195C78.0576 42.3288 78.2203 42.8252 78.2203 43.5088V47H77.4098ZM86.6594 44.3193C86.6594 45.1917 86.4397 45.8737 86.0002 46.3652C85.5607 46.8535 84.9536 47.0977 84.1789 47.0977C83.7004 47.0977 83.2756 46.9854 82.9045 46.7607C82.5334 46.5361 82.2469 46.2139 82.0451 45.7939C81.8433 45.374 81.7424 44.8825 81.7424 44.3193C81.7424 43.4469 81.9605 42.7682 82.3967 42.2832C82.8329 41.7949 83.4383 41.5508 84.2131 41.5508C84.9618 41.5508 85.5559 41.7998 85.9953 42.2979C86.438 42.7959 86.6594 43.4697 86.6594 44.3193ZM82.5822 44.3193C82.5822 45.0029 82.7189 45.5238 82.9924 45.8818C83.2658 46.2399 83.6678 46.4189 84.1984 46.4189C84.729 46.4189 85.1311 46.2415 85.4045 45.8867C85.6812 45.5286 85.8195 45.0062 85.8195 44.3193C85.8195 43.639 85.6812 43.123 85.4045 42.7715C85.1311 42.4167 84.7258 42.2393 84.1887 42.2393C83.6581 42.2393 83.2577 42.4134 82.9875 42.7617C82.7173 43.11 82.5822 43.6292 82.5822 44.3193ZM99.3627 41.6484V42.1611L98.3715 42.2783C98.4626 42.3923 98.544 42.542 98.6156 42.7275C98.6872 42.9098 98.723 43.1165 98.723 43.3477C98.723 43.8717 98.544 44.29 98.1859 44.6025C97.8279 44.915 97.3363 45.0713 96.7113 45.0713C96.5518 45.0713 96.4021 45.0583 96.2621 45.0322C95.9171 45.2145 95.7445 45.444 95.7445 45.7207C95.7445 45.8672 95.8048 45.9762 95.9252 46.0479C96.0456 46.1162 96.2523 46.1504 96.5453 46.1504H97.4926C98.072 46.1504 98.5163 46.2725 98.8256 46.5166C99.1381 46.7607 99.2943 47.1156 99.2943 47.5811C99.2943 48.1735 99.0567 48.6243 98.5814 48.9336C98.1062 49.2461 97.4128 49.4023 96.5014 49.4023C95.8015 49.4023 95.2611 49.2721 94.8803 49.0117C94.5027 48.7513 94.3139 48.3835 94.3139 47.9082C94.3139 47.5827 94.418 47.3011 94.6264 47.0635C94.8347 46.8258 95.1277 46.6647 95.5053 46.5801C95.3686 46.5182 95.253 46.4222 95.1586 46.292C95.0674 46.1618 95.0219 46.0104 95.0219 45.8379C95.0219 45.6426 95.074 45.4717 95.1781 45.3252C95.2823 45.1787 95.4467 45.0371 95.6713 44.9004C95.3946 44.7865 95.1684 44.5928 94.9926 44.3193C94.8201 44.0459 94.7338 43.7334 94.7338 43.3818C94.7338 42.7959 94.9096 42.3451 95.2611 42.0293C95.6127 41.7103 96.1107 41.5508 96.7553 41.5508C97.0352 41.5508 97.2875 41.5833 97.5121 41.6484H99.3627ZM95.0951 47.8984C95.0951 48.1882 95.2172 48.4079 95.4613 48.5576C95.7055 48.7074 96.0554 48.7822 96.5111 48.7822C97.1915 48.7822 97.6944 48.6797 98.0199 48.4746C98.3487 48.2728 98.5131 47.9977 98.5131 47.6494C98.5131 47.3597 98.4236 47.1579 98.2445 47.0439C98.0655 46.9333 97.7286 46.8779 97.2338 46.8779H96.2621C95.8943 46.8779 95.6078 46.9658 95.4027 47.1416C95.1977 47.3174 95.0951 47.5697 95.0951 47.8984ZM95.5346 43.3623C95.5346 43.7367 95.6404 44.0199 95.852 44.2119C96.0635 44.404 96.3581 44.5 96.7357 44.5C97.5268 44.5 97.9223 44.1159 97.9223 43.3477C97.9223 42.5436 97.5219 42.1416 96.7211 42.1416C96.3402 42.1416 96.0473 42.2441 95.8422 42.4492C95.6371 42.6543 95.5346 42.9587 95.5346 43.3623ZM105.902 47L105.741 46.2383H105.702C105.435 46.5736 105.168 46.8014 104.901 46.9219C104.638 47.0391 104.307 47.0977 103.91 47.0977C103.38 47.0977 102.963 46.9609 102.66 46.6875C102.361 46.4141 102.211 46.0251 102.211 45.5205C102.211 44.4398 103.075 43.8734 104.804 43.8213L105.712 43.792V43.46C105.712 43.04 105.621 42.7308 105.438 42.5322C105.259 42.3304 104.971 42.2295 104.574 42.2295C104.128 42.2295 103.624 42.3662 103.061 42.6396L102.812 42.0195C103.075 41.8763 103.363 41.764 103.676 41.6826C103.992 41.6012 104.307 41.5605 104.623 41.5605C105.261 41.5605 105.733 41.7021 106.039 41.9854C106.348 42.2686 106.503 42.7227 106.503 43.3477V47H105.902ZM104.071 46.4287C104.576 46.4287 104.971 46.2904 105.258 46.0137C105.548 45.737 105.692 45.3496 105.692 44.8516V44.3682L104.882 44.4023C104.237 44.4251 103.772 44.526 103.485 44.7051C103.202 44.8809 103.061 45.1559 103.061 45.5303C103.061 45.8232 103.148 46.0462 103.324 46.1992C103.503 46.3522 103.752 46.4287 104.071 46.4287ZM117.149 47V43.5186C117.149 43.0921 117.058 42.7731 116.876 42.5615C116.693 42.3467 116.41 42.2393 116.026 42.2393C115.521 42.2393 115.149 42.3841 114.908 42.6738C114.667 42.9635 114.546 43.4095 114.546 44.0117V47H113.736V43.5186C113.736 43.0921 113.645 42.7731 113.463 42.5615C113.28 42.3467 112.995 42.2393 112.608 42.2393C112.1 42.2393 111.727 42.3923 111.49 42.6982C111.255 43.001 111.138 43.499 111.138 44.1924V47H110.328V41.6484H110.987L111.119 42.3809H111.158C111.311 42.1204 111.526 41.917 111.802 41.7705C112.082 41.624 112.395 41.5508 112.74 41.5508C113.576 41.5508 114.123 41.8535 114.38 42.459H114.42C114.579 42.179 114.81 41.9577 115.113 41.7949C115.416 41.6322 115.761 41.5508 116.148 41.5508C116.754 41.5508 117.206 41.707 117.505 42.0195C117.808 42.3288 117.96 42.8252 117.96 43.5088V47H117.149ZM124.045 47.0977C123.254 47.0977 122.629 46.8568 122.17 46.375C121.714 45.8932 121.487 45.2243 121.487 44.3682C121.487 43.5055 121.698 42.8203 122.121 42.3125C122.548 41.8047 123.119 41.5508 123.835 41.5508C124.506 41.5508 125.036 41.7721 125.427 42.2148C125.818 42.6543 126.013 43.2354 126.013 43.958V44.4707H122.326C122.343 45.099 122.501 45.5758 122.8 45.9014C123.103 46.2269 123.528 46.3896 124.074 46.3896C124.651 46.3896 125.22 46.2692 125.783 46.0283V46.751C125.497 46.8747 125.225 46.9626 124.968 47.0146C124.714 47.07 124.406 47.0977 124.045 47.0977ZM123.825 42.2295C123.396 42.2295 123.052 42.3695 122.795 42.6494C122.541 42.9294 122.391 43.3167 122.346 43.8115H125.144C125.144 43.3005 125.03 42.9098 124.802 42.6396C124.574 42.3662 124.249 42.2295 123.825 42.2295ZM133.002 45.54C133.002 46.0381 132.816 46.4222 132.445 46.6924C132.074 46.9626 131.553 47.0977 130.883 47.0977C130.173 47.0977 129.62 46.9854 129.222 46.7607V46.0088C129.48 46.139 129.755 46.2415 130.048 46.3164C130.344 46.3913 130.629 46.4287 130.902 46.4287C131.325 46.4287 131.651 46.362 131.879 46.2285C132.107 46.0918 132.221 45.8851 132.221 45.6084C132.221 45.4001 132.129 45.2227 131.947 45.0762C131.768 44.9264 131.416 44.7507 130.892 44.5488C130.394 44.3633 130.04 44.2021 129.828 44.0654C129.62 43.9255 129.463 43.7676 129.359 43.5918C129.258 43.416 129.208 43.2061 129.208 42.9619C129.208 42.5257 129.385 42.1823 129.74 41.9316C130.095 41.6777 130.582 41.5508 131.2 41.5508C131.776 41.5508 132.339 41.668 132.889 41.9023L132.601 42.5615C132.064 42.3402 131.578 42.2295 131.141 42.2295C130.757 42.2295 130.468 42.2897 130.272 42.4102C130.077 42.5306 129.979 42.6966 129.979 42.9082C129.979 43.0514 130.015 43.1735 130.087 43.2744C130.162 43.3753 130.28 43.4714 130.443 43.5625C130.606 43.6536 130.918 43.7855 131.381 43.958C132.015 44.1891 132.443 44.4219 132.665 44.6562C132.889 44.8906 133.002 45.1852 133.002 45.54Z" fill="white"/>
<defs>
<linearGradient id="paint0_linear" x1="22.5" y1="4" x2="22.5" y2="44" gradientUnits="userSpaceOnUse">
<stop stop-color="#FF4646"/>
<stop offset="1" stop-color="#FF4262" stop-opacity="0"/>
</linearGradient>
</defs>
</svg>
