<svg width="16" height="16" viewBox="0 0 16 16" fill="none" xmlns="http://www.w3.org/2000/svg">
<path d="M5.91921 4.7207L7.06164 3.5731L11.4691 8L7.06187 12.4269L5.91944 11.2793L8.37581 8.81159H0V7.18841H8.37581L5.91921 4.7207ZM13.3453 16H2.72669C1.26293 16 0.0720222 14.8037 0.0720222 13.3333V11.015H1.6879V13.3333C1.6879 13.9086 2.15397 14.3768 2.72669 14.3768H13.3453C13.9181 14.3768 14.3841 13.9086 14.3841 13.3333V2.66667C14.3841 2.09136 13.9181 1.62319 13.3453 1.62319H2.72669C2.15397 1.62319 1.6879 2.09136 1.6879 2.66667V4.98504H0.0720222V2.66667C0.0720222 1.19629 1.26293 0 2.72669 0H13.3453C14.8091 0 16 1.19629 16 2.66667V13.3333C16 14.8037 14.8091 16 13.3453 16Z" fill="white"/>
</svg>
